<?xml version="1.0" encoding="utf-8"?>
<!DOCTYPE svg PUBLIC "-//W3C//DTD SVG 1.1//EN" "http://www.w3.org/Graphics/SVG/1.1/DTD/svg11.dtd">
<svg style="width:308px;height:308px;" version="1.1" id="图形" xmlns="http://www.w3.org/2000/svg" xmlns:xlink="http://www.w3.org/1999/xlink" x="0px" y="0px" width="1024px" height="1024px" viewBox="0 0 1024 1024" enable-background="new 0 0 1024 1024" xml:space="preserve">
  <path class="svgpath" data-index="path_0" fill="#ea8010" d="M301.919842 115.317399 122.285602 115.317399l0 179.63424c0 0 0 179.63424 179.63424 179.63424l179.63424 0L481.554082 294.951639C481.554082 115.317399 301.919842 115.317399 301.919842 115.317399L301.919842 115.317399zM421.674297 414.706093" />
<path class="svgpath" data-index="path_1" fill="#ea8010" d="M721.068108 115.317399c0 0-179.63424 0-179.63424 179.63424l0 179.63424 179.63424 0c179.63424 0 179.63424-179.63424 179.63424-179.63424L900.702348 115.317399 721.068108 115.317399 721.068108 115.317399zM840.822562 294.951639" />
<path class="svgpath" data-index="path_2" fill="#ea8010" d="M721.068108 534.464641 541.433868 534.464641l0 179.63424c0 179.63424 179.63424 179.63424 179.63424 179.63424l179.63424 0L900.702348 714.098881C900.701325 714.098881 900.701325 534.464641 721.068108 534.464641L721.068108 534.464641z" />
<path class="svgpath" data-index="path_3" fill="#ea8010" d="M122.285602 714.098881l0 179.63424L301.919842 893.733121c0 0 179.63424 0 179.63424-179.63424L481.554082 534.464641 301.919842 534.464641C122.285602 534.464641 122.285602 714.098881 122.285602 714.098881L122.285602 714.098881zM421.674297 714.098881" />

</svg>
