<?xml version="1.0" encoding="utf-8"?>
<!DOCTYPE svg PUBLIC "-//W3C//DTD SVG 1.1//EN" "http://www.w3.org/Graphics/SVG/1.1/DTD/svg11.dtd">
<svg style="width:308px;height:308px;" version="1.1" id="图形" xmlns="http://www.w3.org/2000/svg" xmlns:xlink="http://www.w3.org/1999/xlink" x="0px" y="0px" width="1024px" height="1024px" viewBox="0 0 1024 1024" enable-background="new 0 0 1024 1024" xml:space="preserve">
  <path class="svgpath" data-index="path_0" fill="#ea8010" d="M301.919842 115.317399 122.285602 115.317399l0 179.63424c0 0 0 179.63424 179.63424 179.63424l179.63424 0L481.554082 294.951639C481.554082 115.317399 301.919842 115.317399 301.919842 115.317399L301.919842 115.317399zM421.674297 414.706093 301.919842 414.706093c-109.37813 0-119.319549-92.009554-119.754454-119.755478L182.165388 175.196161 301.919842 175.196161c19.998473 0 119.754454 5.78782 119.754454 119.754454L421.674297 414.706093 421.674297 414.706093zM421.674297 414.706093" />
<path class="svgpath" data-index="path_1" fill="#ea8010" d="M721.068108 115.317399c0 0-179.63424 0-179.63424 179.63424l0 179.63424 179.63424 0c179.63424 0 179.63424-179.63424 179.63424-179.63424L900.702348 115.317399 721.068108 115.317399 721.068108 115.317399zM840.822562 294.951639c0 19.998473-5.78782 119.755478-119.754454 119.755478L601.308537 414.707117 601.308537 294.951639c0-109.377106 92.009554-119.318526 119.758548-119.754454l119.754454 0L840.821539 294.951639 840.822562 294.951639zM840.822562 294.951639" />
<path class="svgpath" data-index="path_2" fill="#ea8010" d="M721.068108 534.464641 541.433868 534.464641l0 179.63424c0 179.63424 179.63424 179.63424 179.63424 179.63424l179.63424 0L900.702348 714.098881C900.701325 714.098881 900.701325 534.464641 721.068108 534.464641L721.068108 534.464641zM840.822562 833.854359 721.068108 833.854359c-19.998473 0-119.758548-5.78782-119.758548-119.754454L601.30956 594.340333l119.758548 0c109.374036 0 119.315456 92.009554 119.754454 119.758548L840.822562 833.854359 840.822562 833.854359zM840.822562 833.854359" />
<path class="svgpath" data-index="path_3" fill="#ea8010" d="M122.285602 714.098881l0 179.63424L301.919842 893.733121c0 0 179.63424 0 179.63424-179.63424L481.554082 534.464641 301.919842 534.464641C122.285602 534.464641 122.285602 714.098881 122.285602 714.098881L122.285602 714.098881zM421.674297 714.098881c0 109.374036-92.010577 119.315456-119.754454 119.754454L182.165388 833.853335 182.165388 714.098881c0-19.998473 5.78782-119.758548 119.754454-119.758548l119.754454 0L421.674297 714.098881 421.674297 714.098881zM421.674297 714.098881" />

</svg>
